<?xml version="1.0" standalone="no"?>
<!DOCTYPE svg PUBLIC "-//W3C//DTD SVG 20010904//EN"
 "http://www.w3.org/TR/2001/REC-SVG-20010904/DTD/svg10.dtd">
<svg version="1.0" xmlns="http://www.w3.org/2000/svg"
 width="5760.000000pt" height="3240.000000pt" viewBox="0 0 5760.000000 3240.000000"
 preserveAspectRatio="xMidYMid meet">

<g transform="translate(0.000000,3240.000000) scale(0.100000,-0.100000)"
fill="#FF3131" stroke="none">
<path d="M9100 25549 c-1503 -79 -2945 -505 -4275 -1262 -389 -221 -915 -581
-1249 -855 -788 -646 -1414 -1333 -1961 -2152 -885 -1324 -1419 -2829 -1569
-4420 -54 -572 -54 -1218 0 -1805 107 -1170 439 -2334 961 -3380 649 -1297
1584 -2436 2728 -3321 398 -308 829 -589 1305 -851 269 -148 715 -356 1050
-488 845 -334 1742 -545 2670 -629 556 -50 1243 -47 1795 9 445 45 793 102
1225 201 1577 362 3057 1136 4270 2233 274 248 638 621 841 861 45 53 163 194
197 235 220 267 576 778 768 1104 102 173 154 263 154 266 0 2 14 28 31 57 39
66 234 451 273 538 16 36 41 92 56 125 15 33 35 77 44 98 9 20 23 52 31 70 8
17 28 68 45 112 18 44 38 94 45 110 58 134 196 524 255 725 12 41 26 86 31
100 11 32 94 335 103 375 4 17 11 46 15 65 48 201 94 418 121 573 9 53 15 84
40 235 5 31 12 77 15 102 29 214 36 276 46 369 43 423 58 899 42 1340 -12 327
-21 471 -43 676 -16 152 -49 398 -70 525 -6 36 -15 92 -20 125 -5 33 -11 69
-14 80 -3 11 -12 61 -21 110 -9 50 -26 128 -36 175 -11 47 -24 103 -29 125
-34 152 -37 165 -85 345 -68 256 -159 546 -249 790 -80 219 -95 260 -111 297
-23 50 -27 60 -78 183 -104 246 -326 706 -390 807 -15 24 -27 44 -27 47 0 3
-84 153 -172 306 -94 163 -425 660 -521 780 -7 9 -39 52 -72 95 -62 83 -194
252 -231 295 -12 14 -63 75 -114 135 -230 274 -583 637 -875 901 -1130 1020
-2462 1746 -3940 2148 -636 173 -1313 279 -2020 316 -218 11 -757 11 -985 -1z
m725 -3021 c186 -46 360 -172 460 -333 191 -306 153 -692 -94 -948 -47 -50
-214 -167 -237 -167 -7 0 -16 -5 -19 -10 -6 -9 -34 -1123 -35 -1366 l0 -101
64 -11 c35 -7 84 -12 109 -12 77 0 230 36 322 75 17 7 46 20 65 28 48 20 116
71 136 103 10 14 23 47 30 72 10 43 9 53 -13 112 -39 102 -71 225 -88 336 -43
289 22 586 177 811 115 169 335 325 559 397 181 58 344 81 579 80 235 -1 349
-20 555 -88 232 -78 501 -235 730 -426 123 -103 454 -433 616 -615 73 -82 136
-152 139 -155 3 -3 41 -45 85 -95 146 -164 271 -300 415 -448 148 -153 395
-384 484 -452 22 -16 76 -58 120 -93 82 -64 324 -227 406 -274 376 -213 761
-345 1215 -417 179 -28 495 -50 723 -51 102 0 113 -2 110 -17 -3 -19 -28 -26
-147 -43 -282 -40 -658 -52 -896 -29 l-111 11 -109 -55 c-216 -108 -433 -164
-703 -182 -84 -6 -102 -10 -100 -22 4 -20 -88 -71 -217 -122 -189 -75 -344
-107 -575 -122 -164 -10 -165 -10 -260 -54 -294 -135 -641 -182 -928 -124 -60
12 -68 9 -53 -19 10 -18 4 -24 -52 -55 -145 -81 -338 -139 -518 -156 -145 -13
-360 5 -469 39 -14 4 -57 18 -96 30 l-71 22 -41 -26 c-235 -148 -653 -168
-932 -44 -97 43 -117 53 -165 82 -136 81 -285 219 -525 486 -151 168 -435 452
-500 501 -32 24 -59 48 -60 52 0 12 73 0 140 -23 94 -31 184 -77 296 -151 148
-98 247 -181 458 -382 98 -95 218 -202 266 -238 243 -182 558 -270 852 -238
134 14 134 15 26 72 -148 79 -280 189 -603 507 -154 152 -311 305 -350 340
-38 36 -76 72 -85 80 -8 8 -42 37 -75 65 -33 27 -62 52 -65 55 -16 17 -96 74
-160 115 l-75 47 60 -5 c160 -14 425 -148 695 -351 132 -99 162 -125 390 -331
201 -182 285 -248 400 -317 249 -149 489 -213 790 -211 156 1 252 13 410 51
l35 9 -25 10 c-14 6 -65 24 -115 39 -86 26 -101 32 -145 54 -11 6 -24 10 -29
10 -7 0 -76 37 -202 108 -62 35 -230 163 -304 231 -38 36 -185 178 -326 316
-429 421 -678 636 -844 730 l-80 45 45 0 c46 -1 134 -20 146 -33 4 -4 14 -7
23 -7 29 0 275 -126 391 -200 203 -131 378 -270 636 -506 241 -222 283 -257
407 -341 269 -184 511 -270 852 -303 99 -10 147 -9 272 3 160 16 213 30 158
41 -198 40 -312 79 -500 171 -130 63 -292 165 -381 240 -26 22 -63 52 -83 68
-20 16 -144 135 -276 265 -579 572 -911 856 -1135 973 l-65 34 39 3 c74 6 321
-91 491 -194 32 -19 59 -34 60 -34 13 0 283 -191 390 -275 183 -145 283 -233
565 -500 277 -262 600 -451 916 -535 215 -57 414 -76 631 -61 163 12 319 37
418 69 l30 9 -25 6 c-14 3 -51 8 -82 11 -299 30 -629 158 -918 357 -47 32 -96
69 -110 81 -14 13 -48 41 -75 63 -28 22 -158 146 -290 275 -132 130 -283 276
-335 325 -52 50 -106 101 -120 115 -28 27 -103 95 -165 149 -22 19 -58 51 -80
70 -22 20 -60 52 -84 71 -24 19 -48 40 -55 45 -79 71 -264 199 -358 247 -59
31 -61 33 -34 36 80 9 391 -118 574 -235 287 -183 545 -384 802 -627 323 -304
446 -406 606 -502 160 -95 294 -158 444 -207 70 -23 104 -32 213 -57 78 -18
288 -40 380 -40 101 0 347 24 405 39 20 6 65 16 100 23 34 6 56 15 50 19 -7 4
-58 16 -113 28 -108 23 -116 25 -280 72 -94 27 -181 56 -260 89 -11 5 -40 17
-65 27 -25 10 -115 52 -200 94 -176 86 -311 167 -534 319 -39 26 -131 94 -136
100 -3 3 -54 46 -115 95 -190 153 -297 254 -820 780 -280 281 -544 541 -585
577 -470 408 -843 563 -1278 528 -432 -34 -706 -188 -848 -475 -49 -101 -64
-184 -64 -369 0 -83 4 -110 25 -163 106 -264 10 -535 -227 -648 -184 -88 -442
-100 -618 -30 -25 10 -54 24 -65 32 -11 7 -24 13 -31 13 -8 0 -13 -110 -18
-377 -3 -208 -11 -571 -16 -808 -5 -236 -14 -657 -20 -935 -5 -278 -12 -589
-16 -692 -5 -140 -3 -188 5 -188 27 0 183 115 250 184 95 98 124 161 123 271
0 67 -5 90 -30 145 -30 66 -77 134 -140 202 -52 57 -63 75 -78 134 -13 47 -13
61 0 110 55 211 290 264 435 98 75 -85 157 -236 204 -374 31 -92 32 -101 31
-255 0 -147 -2 -166 -27 -234 -42 -115 -93 -197 -179 -287 -121 -126 -305
-241 -503 -314 -49 -19 -93 -36 -96 -39 -4 -3 -12 -294 -18 -646 -6 -352 -14
-668 -16 -702 -3 -35 -2 -63 2 -63 19 0 161 116 263 214 163 158 242 259 315
404 79 158 100 246 100 417 0 165 -12 226 -70 350 -43 94 -46 115 -15 115 35
0 107 -141 146 -287 29 -105 27 -339 -4 -453 -82 -303 -285 -581 -624 -857
-105 -85 -118 -99 -118 -127 0 -17 -7 -319 -15 -671 -24 -1072 -28 -1395 -20
-1395 18 0 282 144 344 188 179 127 295 274 340 432 7 25 17 58 22 74 13 40
11 287 -2 344 -26 115 -33 143 -66 237 -70 198 -226 470 -391 679 -51 65 -60
81 -51 97 15 30 38 12 141 -114 249 -305 427 -659 473 -939 48 -300 -27 -559
-225 -771 -131 -140 -267 -238 -520 -375 l-75 -41 -6 -203 c-4 -112 -12 -482
-18 -823 -6 -341 -13 -635 -16 -652 -2 -19 1 -33 7 -33 18 0 195 108 277 171
181 136 290 321 322 545 26 190 -40 380 -203 581 -57 70 -180 179 -269 237
-59 39 -75 68 -43 80 34 13 219 -117 345 -243 253 -254 339 -566 237 -865 -26
-77 -88 -202 -134 -271 -68 -103 -196 -211 -457 -387 l-84 -57 -7 -253 c-4
-139 -11 -464 -16 -723 -5 -258 -13 -594 -17 -745 -8 -258 -8 -267 -15 -150
-6 121 -21 752 -33 1425 -4 182 -8 340 -11 353 l-5 23 -44 -31 c-73 -50 -208
-191 -235 -245 -21 -43 -25 -64 -25 -145 0 -83 4 -103 28 -154 38 -81 83 -134
172 -201 80 -60 95 -83 95 -142 0 -49 -27 -90 -77 -114 -37 -18 -47 -19 -80
-9 -116 38 -281 237 -331 400 -26 86 -34 180 -22 262 12 85 17 101 59 188 41
86 172 211 330 316 l134 88 -7 261 c-3 143 -11 517 -17 830 -5 314 -14 574
-19 579 -10 10 -158 -81 -245 -151 -106 -86 -173 -193 -200 -318 -60 -285 74
-574 346 -748 65 -42 84 -76 76 -143 -7 -65 -48 -105 -114 -111 -59 -5 -83 8
-192 101 -201 173 -326 407 -345 646 -20 264 69 505 247 665 73 67 193 144
321 206 l109 54 -7 405 c-3 223 -8 434 -11 470 -2 36 -7 265 -11 510 -3 245
-9 482 -13 528 l-6 84 -86 -65 c-192 -145 -327 -307 -383 -458 -136 -368 -16
-733 316 -957 82 -55 103 -86 102 -147 -2 -85 -86 -149 -163 -124 -48 16 -137
85 -230 179 -274 276 -369 660 -251 1020 90 274 260 467 619 700 l84 55 -7
260 c-4 143 -11 476 -16 739 -5 273 -13 483 -18 488 -11 11 -158 -44 -236 -88
-256 -143 -386 -506 -307 -855 33 -145 127 -340 232 -479 85 -114 90 -122 48
-85 -150 133 -290 330 -360 505 -37 94 -64 211 -74 320 -10 109 18 314 55 398
6 12 15 34 21 50 38 92 118 210 186 273 74 70 166 129 299 195 l134 65 0 182
c0 100 -5 358 -10 572 -10 390 -22 983 -40 1958 -6 285 -13 523 -16 528 -3 6
-22 -5 -42 -23 -104 -94 -235 -137 -415 -138 -202 0 -375 60 -485 169 -144
142 -179 344 -96 551 13 33 19 80 21 172 7 224 -27 344 -139 493 -154 203
-394 313 -757 346 -360 32 -718 -85 -1066 -349 -204 -156 -350 -294 -945 -896
-500 -505 -743 -716 -1080 -934 -221 -144 -495 -285 -711 -365 -120 -45 -344
-109 -480 -137 -135 -28 -142 -31 -99 -41 441 -108 856 -84 1250 71 89 35 220
101 293 147 37 24 70 43 73 43 3 0 57 39 120 86 114 85 155 121 394 344 202
188 266 245 430 374 247 194 405 299 605 399 174 88 277 124 380 134 l50 4
-95 -53 c-149 -84 -278 -181 -510 -382 -129 -112 -395 -361 -509 -477 -166
-168 -422 -408 -511 -480 -217 -174 -485 -313 -745 -388 -87 -25 -286 -61
-336 -61 -79 0 -72 -13 19 -36 289 -73 665 -78 927 -12 276 69 511 180 750
356 97 72 107 81 325 283 227 211 336 306 478 417 119 93 375 272 388 272 3 0
24 13 47 28 54 37 268 142 288 142 8 0 19 4 25 9 15 16 124 44 184 48 l55 4
-70 -38 c-231 -125 -497 -351 -1040 -882 -439 -429 -569 -533 -832 -664 -168
-84 -312 -133 -508 -173 -56 -11 -1 -25 163 -41 189 -19 331 -8 547 39 65 14
234 73 310 108 124 57 337 194 425 274 25 23 64 56 85 75 22 19 92 82 155 141
193 177 229 209 360 309 145 113 200 152 296 211 237 147 436 230 547 230 l42
0 -62 -35 c-177 -98 -425 -313 -893 -772 -285 -279 -358 -346 -460 -421 -184
-137 -400 -242 -597 -292 -24 -6 -43 -14 -43 -18 0 -9 59 -25 185 -48 121 -23
399 -24 510 -1 222 44 365 98 537 203 72 44 209 142 228 163 3 3 28 26 55 51
28 25 98 88 155 141 263 242 530 436 740 539 129 62 251 100 318 99 33 0 35
-2 18 -12 -219 -136 -303 -210 -832 -728 -291 -285 -410 -383 -566 -469 -43
-23 -80 -45 -83 -49 -2 -5 48 -14 113 -20 281 -30 569 44 812 209 36 24 67 46
70 50 3 3 19 16 35 29 17 12 112 101 212 197 259 250 415 370 611 469 148 75
347 114 241 46 -62 -39 -253 -225 -442 -430 -89 -97 -187 -203 -217 -236 -154
-166 -275 -270 -410 -349 -178 -105 -360 -155 -565 -156 -195 0 -332 31 -487
112 -78 40 -78 40 -117 24 -79 -31 -239 -65 -354 -75 -243 -21 -487 24 -704
130 -96 48 -109 59 -93 88 13 25 6 26 -67 11 -279 -57 -635 -9 -918 124 -91
43 -91 43 -265 55 -96 6 -195 16 -220 21 -25 6 -67 15 -95 21 -187 40 -475
161 -475 200 0 15 -15 18 -97 24 -280 18 -500 76 -726 191 l-88 45 -112 -10
c-259 -25 -672 -8 -942 37 -75 13 -100 21 -100 32 0 12 17 15 80 17 435 12
711 39 960 93 22 5 65 14 95 21 344 75 731 239 1055 447 83 53 317 223 335
242 3 3 30 25 60 49 196 154 571 529 875 876 39 44 79 89 90 101 11 11 52 56
90 99 130 147 199 219 375 395 204 205 291 283 415 374 50 36 95 69 100 73 73
56 280 169 405 222 90 38 197 70 330 98 110 23 150 26 330 27 262 1 450 -29
645 -104 117 -44 279 -146 373 -234 106 -99 218 -284 260 -431 78 -269 64
-556 -38 -822 -17 -43 -30 -93 -30 -113 1 -45 30 -108 66 -142 72 -66 255
-137 412 -159 100 -14 189 -5 293 29 l50 17 -1 300 c0 165 -5 413 -10 550 -5
138 -9 321 -10 407 0 161 -4 188 -24 188 -31 0 -178 105 -243 173 -85 90 -134
171 -176 292 -30 86 -32 97 -31 240 0 141 2 155 31 241 96 280 346 487 618
514 81 8 202 2 260 -12z m-832 -4679 c24 -6 60 -31 92 -62 43 -42 57 -64 70
-111 33 -113 4 -195 -106 -306 -131 -133 -216 -271 -241 -394 -24 -123 36
-262 170 -386 83 -79 232 -159 345 -187 115 -28 98 -73 -27 -73 -234 1 -463
92 -630 249 -215 204 -259 480 -136 841 52 155 162 349 221 391 77 54 146 65
242 38z"/>
<path d="M21520 21250 l0 -2560 645 0 c608 0 645 1 645 18 0 9 2 331 3 715 2
608 4 699 17 707 9 6 216 10 511 10 426 0 498 -2 509 -15 7 -8 26 -41 42 -72
64 -125 162 -311 193 -368 44 -82 109 -205 190 -360 37 -71 79 -150 93 -175
13 -25 54 -101 90 -170 36 -69 85 -161 108 -205 l42 -80 731 -3 c439 -1 731 2
731 7 0 9 -68 117 -410 651 -565 884 -651 1023 -638 1035 7 7 38 26 69 43 199
106 405 288 532 470 138 195 232 431 275 692 44 261 51 437 27 660 -17 159
-29 230 -56 325 -95 330 -245 567 -488 769 -286 238 -652 380 -1136 442 -127
16 -264 18 -1432 21 l-1293 4 0 -2561z m2530 1527 c399 -82 592 -281 650 -667
13 -89 12 -167 -5 -286 -28 -196 -82 -310 -205 -434 -97 -98 -188 -151 -330
-194 -142 -42 -210 -46 -789 -46 l-548 0 -6 30 c-4 16 -7 381 -7 809 0 709 2
781 17 796 15 15 67 16 582 12 459 -4 580 -8 641 -20z"/>
<path d="M26830 21250 l0 -2560 2038 2 2037 3 3 499 c2 376 -1 502 -10 507 -6
4 -628 8 -1382 8 -754 0 -1377 1 -1384 1 -10 0 -12 107 -10 518 l3 517 1217 3
1218 2 5 23 c3 12 4 238 3 502 l-3 480 -1220 5 -1220 5 0 515 0 515 1353 3
1352 2 -2 503 -3 502 -1997 3 -1998 2 0 -2560z"/>
<path d="M31765 23798 c-3 -7 -4 -1158 -3 -2558 l3 -2545 1140 -3 c1120 -3
1274 0 1500 29 168 23 428 78 510 109 11 4 38 13 60 20 41 12 154 54 190 70
333 145 564 300 805 540 353 351 551 716 655 1206 45 209 58 373 52 654 -7
342 -40 549 -134 830 -169 513 -561 988 -1052 1277 -357 210 -788 338 -1253
372 -224 17 -2467 15 -2473 -1z m2829 -1239 c47 -22 84 -58 113 -111 15 -28
19 -66 23 -268 l5 -235 235 -5 c176 -4 241 -9 260 -19 54 -30 83 -58 108 -101
l27 -45 0 -506 0 -506 -30 -49 c-19 -30 -49 -60 -79 -79 l-49 -30 -236 -5
-236 -5 -5 -235 -5 -236 -33 -51 c-33 -52 -63 -77 -116 -100 -43 -19 -994 -18
-1039 0 -52 22 -98 68 -123 122 -23 48 -24 60 -24 278 l0 227 -227 0 c-218 0
-230 1 -278 24 -54 25 -100 71 -122 123 -18 44 -19 975 -1 1036 14 45 67 105
119 134 30 16 63 18 272 21 l237 3 0 228 c0 222 1 228 25 277 29 59 56 86 111
114 37 18 62 19 532 20 476 0 494 -1 536 -21z"/>
<path d="M33598 22403 c-9 -2 -20 -12 -24 -21 -5 -9 -11 -142 -14 -295 -5
-278 -5 -279 -29 -298 -22 -18 -42 -19 -288 -19 -260 0 -295 -4 -315 -34 -4
-6 -8 -217 -8 -468 l0 -457 22 -21 c21 -19 34 -20 289 -20 l268 0 28 -24 28
-24 5 -282 c5 -266 6 -282 25 -296 17 -12 91 -14 482 -12 449 3 463 4 477 23
13 17 15 65 16 291 l0 271 26 24 26 24 272 3 c257 3 274 4 295 23 21 20 21 23
21 478 0 453 0 458 -21 477 -19 17 -44 19 -301 24 -279 5 -280 5 -299 29 -18
22 -19 42 -19 293 l0 269 -25 24 -24 25 -448 -1 c-246 -1 -455 -3 -465 -6z
m327 -720 c28 -9 65 -25 83 -35 43 -24 59 -23 118 7 168 85 352 62 459 -57
154 -172 159 -431 11 -648 -61 -90 -322 -362 -459 -479 -86 -73 -100 -65 -361
195 -235 234 -319 355 -350 507 -19 93 -20 123 -2 208 19 89 50 151 107 214
98 106 244 139 394 88z"/>
<path d="M33689 21508 c-108 -72 -132 -309 -43 -429 13 -18 34 -47 47 -64 56
-76 354 -378 368 -373 39 16 300 287 379 393 73 99 84 130 85 235 0 84 -3 101
-28 153 -38 77 -82 107 -158 107 -67 0 -121 -18 -199 -65 -32 -19 -68 -35 -81
-35 -13 0 -49 15 -79 33 -121 73 -225 88 -291 45z"/>
<path d="M49935 20130 c-89 -11 -210 -43 -301 -81 -245 -102 -649 -444 -850
-719 -22 -30 -52 -71 -66 -90 -67 -92 -208 -348 -208 -377 0 -5 39 -39 88 -75
48 -36 107 -82 132 -102 25 -20 50 -36 56 -36 6 0 34 47 61 103 108 222 241
406 428 592 194 194 420 352 565 394 25 7 58 17 74 22 45 14 219 11 279 -5
192 -50 349 -200 410 -391 42 -135 49 -243 21 -374 -92 -441 -425 -770 -888
-875 -199 -45 -466 -21 -660 61 -105 43 -190 100 -348 232 -276 229 -429 340
-661 480 -413 249 -795 389 -1117 408 l-105 6 -81 81 c-178 178 -405 260 -634
227 -312 -44 -554 -259 -631 -559 -30 -120 -24 -315 13 -417 91 -245 259 -408
503 -487 60 -20 91 -23 210 -22 160 0 238 18 358 83 127 68 268 220 327 355
35 78 60 195 61 283 l1 83 47 0 c60 0 251 -52 366 -100 11 -5 40 -17 65 -27
166 -67 403 -200 625 -349 126 -85 384 -282 445 -339 118 -111 306 -227 468
-289 81 -31 127 -44 269 -76 58 -14 419 -12 485 1 183 38 255 60 385 117 307
136 559 373 711 671 190 371 207 763 46 1084 -65 129 -199 276 -330 360 -179
116 -413 171 -619 147z m-3594 -901 c106 -34 183 -104 231 -208 25 -54 29 -76
30 -147 0 -45 -6 -100 -13 -121 -37 -108 -130 -203 -236 -243 -82 -31 -205
-26 -285 12 -158 74 -252 250 -219 410 48 233 273 369 492 297z"/>
<path d="M48256 18032 c-6 -10 -29 -170 -45 -312 -17 -145 -31 -365 -31 -472
0 -66 -4 -101 -12 -108 -7 -6 -63 -44 -125 -85 -109 -73 -223 -158 -374 -280
-107 -85 -468 -450 -581 -585 -117 -141 -258 -333 -365 -500 -77 -119 -94
-148 -151 -250 -13 -25 -28 -50 -33 -56 -17 -21 -159 -314 -159 -327 0 -7 -4
-17 -9 -22 -18 -20 -151 -378 -181 -490 -51 -186 -65 -252 -95 -444 -18 -114
-20 -477 -4 -583 26 -168 80 -374 125 -476 81 -184 155 -308 245 -407 214
-238 445 -352 771 -381 63 -5 69 -8 88 -39 31 -51 105 -111 179 -148 57 -28
75 -32 146 -32 66 0 90 5 137 27 118 55 197 164 220 302 30 178 -62 390 -210
485 -69 44 -127 62 -207 62 -97 1 -168 -27 -235 -93 -48 -47 -110 -152 -110
-187 0 -18 -96 -8 -182 20 -303 98 -517 397 -600 838 -32 167 -31 465 0 636
38 206 75 343 96 357 6 4 833 8 1837 8 1446 0 1828 -3 1840 -12 18 -16 29 -49
68 -210 77 -314 80 -590 10 -878 -42 -173 -116 -342 -200 -457 -128 -174 -310
-287 -497 -309 l-58 -6 -14 43 c-20 60 -81 151 -123 183 -84 64 -227 86 -327
51 -216 -76 -355 -343 -296 -569 21 -80 43 -121 97 -180 158 -173 405 -145
574 66 30 37 30 37 140 49 414 43 730 282 930 702 133 279 191 605 174 967
-26 538 -299 1251 -712 1865 -358 531 -861 1024 -1357 1330 -52 32 -97 60 -99
61 -12 10 18 542 35 595 3 11 -9 25 -37 43 -22 15 -73 55 -112 89 -146 126
-160 136 -171 119z m225 -1229 c41 -27 87 -57 102 -68 67 -48 252 -188 257
-194 3 -3 55 -49 115 -102 321 -281 593 -606 870 -1044 95 -149 250 -458 241
-480 -5 -13 -217 -15 -1668 -15 -968 0 -1669 4 -1677 9 -30 19 214 463 398
726 261 374 634 764 966 1011 125 93 294 204 310 204 6 0 44 -21 86 -47z"/>
<path d="M43185 17249 c-452 -46 -782 -144 -1130 -337 -122 -67 -294 -184
-359 -244 -11 -10 -35 -28 -53 -41 -40 -27 -293 -282 -354 -357 -152 -186
-275 -393 -366 -615 -51 -126 -99 -282 -123 -400 -6 -33 -16 -80 -21 -105 -63
-312 -47 -801 36 -1147 126 -518 392 -952 810 -1319 264 -232 567 -404 895
-509 423 -134 915 -171 1335 -100 560 96 1162 401 1591 807 46 44 84 85 84 91
0 6 -30 42 -68 81 -37 39 -137 145 -222 235 -85 91 -196 208 -246 260 -50 53
-115 122 -144 154 -29 31 -58 57 -64 57 -6 0 -36 -24 -66 -53 -198 -191 -504
-374 -765 -458 -358 -116 -725 -101 -1042 43 -348 158 -645 493 -767 863 -86
264 -106 600 -51 868 67 324 232 603 480 817 165 142 353 243 530 284 39 9 86
21 105 26 19 5 95 14 168 21 135 12 293 4 397 -23 160 -40 249 -71 380 -134
199 -94 348 -203 517 -375 58 -60 111 -109 116 -109 6 0 113 123 240 273 126
149 287 340 356 422 70 83 132 158 137 167 7 13 -7 31 -75 93 -223 203 -472
370 -730 490 -109 50 -338 138 -436 167 -132 38 -379 87 -519 102 -151 17
-438 19 -576 5z"/>
<path d="M21520 14660 l0 -2560 580 0 580 0 2 1663 c2 1253 6 1656 14 1637 20
-44 63 -138 89 -195 14 -31 25 -58 25 -60 0 -4 18 -47 104 -240 8 -16 43 -97
79 -180 76 -175 301 -692 327 -750 10 -22 39 -89 65 -150 26 -60 55 -128 65
-150 23 -51 234 -535 351 -805 49 -113 95 -216 102 -230 l13 -25 404 -3 c402
-3 450 -1 450 18 0 5 21 56 46 112 25 57 51 117 58 133 8 17 44 100 81 185 37
85 78 179 91 208 13 29 24 55 24 57 0 2 12 30 26 62 15 32 32 72 39 88 7 17
24 55 38 85 13 30 39 89 57 130 18 41 40 93 50 115 10 22 39 90 65 150 49 114
71 163 111 253 13 29 24 54 24 57 0 2 16 38 35 79 19 42 35 78 35 81 0 2 11
28 24 57 55 124 115 260 181 413 26 61 57 133 69 160 13 28 53 121 91 208 38
86 72 157 77 157 4 0 8 -652 8 -1448 0 -797 3 -1544 7 -1660 l6 -212 569 0
568 0 -2 2558 -3 2557 -709 0 -708 0 -48 -105 c-26 -58 -57 -127 -70 -155 -13
-27 -35 -77 -50 -110 -47 -104 -81 -178 -112 -245 -17 -36 -46 -101 -65 -145
-20 -44 -58 -127 -84 -184 -27 -57 -49 -105 -49 -106 0 -2 -22 -51 -50 -110
-27 -59 -50 -108 -50 -111 0 -2 -25 -56 -55 -120 -30 -64 -55 -118 -55 -120 0
-2 -16 -39 -36 -81 -20 -43 -47 -102 -60 -130 -13 -29 -36 -79 -50 -110 -15
-32 -37 -80 -49 -108 -13 -27 -37 -81 -55 -120 -18 -38 -51 -113 -75 -165 -23
-52 -59 -130 -79 -173 -20 -43 -36 -80 -36 -82 0 -2 -27 -61 -60 -130 -33 -69
-60 -128 -60 -130 0 -2 -16 -38 -35 -79 -19 -42 -51 -110 -70 -152 -20 -42
-37 -75 -39 -73 -4 4 -170 364 -213 459 -8 19 -28 62 -43 95 -37 79 -74 160
-155 339 -7 17 -34 75 -59 130 -25 54 -46 100 -46 101 0 2 -22 51 -50 110 -27
59 -50 108 -50 110 0 2 -18 42 -40 89 -22 47 -58 125 -80 172 -22 47 -40 87
-40 89 0 2 -22 51 -50 110 -27 59 -50 108 -50 110 0 3 -13 31 -119 258 -22 49
-41 91 -41 93 0 3 -15 37 -34 77 -19 40 -45 97 -59 127 -14 30 -42 91 -62 135
-21 44 -52 114 -70 155 -39 89 -112 249 -124 270 -7 13 -99 15 -720 18 l-711
2 0 -2560z"/>
<path d="M28197 17213 c-4 -3 -7 -1155 -7 -2560 l0 -2553 2040 0 2040 0 0 505
0 505 -1392 2 -1393 3 0 520 0 520 1223 3 1222 2 -2 503 -3 502 -1220 5 -1220
5 -3 512 -2 513 1352 2 1353 3 0 505 0 505 -1991 2 c-1095 2 -1994 0 -1997 -4z"/>
<path d="M33143 17214 c-10 -5 -13 -526 -13 -2560 l0 -2554 1173 0 c1123 0
1258 3 1472 31 396 51 775 178 1076 360 607 366 1005 920 1138 1584 71 354 73
800 5 1150 -96 497 -319 908 -680 1255 -389 375 -849 599 -1419 691 -262 42
-239 41 -1515 45 -674 2 -1231 1 -1237 -2z m2412 -1049 c44 -9 100 -20 125
-25 110 -21 293 -104 420 -191 127 -87 275 -236 373 -376 75 -108 181 -354
208 -483 39 -190 43 -231 43 -440 1 -204 -5 -273 -36 -415 -64 -295 -183 -519
-388 -725 -176 -178 -386 -296 -610 -343 -166 -35 -211 -37 -739 -37 l-531 0
0 1523 c0 838 3 1527 8 1531 4 5 241 6 527 3 431 -4 534 -8 600 -22z"/>
<path d="M38757 17213 c-4 -3 -7 -1155 -7 -2560 l0 -2553 645 0 645 0 0 2554
c0 2320 -1 2554 -16 2560 -21 8 -1259 8 -1267 -1z"/>
<path d="M51264 17212 c-9 -5 -13 -679 -15 -2557 l-4 -2550 1733 -3 1732 -2 0
540 0 540 -1085 0 -1085 0 -2 2018 -3 2017 -630 2 c-346 2 -635 -1 -641 -5z"/>
<path d="M31430 10159 c-278 -55 -420 -125 -561 -277 -110 -119 -169 -272
-169 -436 0 -226 97 -421 269 -540 91 -63 385 -175 766 -290 260 -79 385 -200
385 -376 0 -201 -182 -320 -490 -320 -288 0 -625 138 -864 353 -11 9 -23 17
-28 17 -4 0 -49 -82 -99 -182 l-91 -183 43 -38 c64 -57 211 -153 309 -202 421
-211 935 -232 1295 -52 214 106 361 286 400 490 61 318 -83 623 -350 746 -178
82 -430 175 -625 231 -166 48 -246 88 -327 163 -46 44 -67 72 -83 113 -52 141
-4 261 134 329 92 46 178 59 336 52 212 -10 429 -76 637 -195 52 -29 74 -37
81 -29 15 20 175 367 171 371 -138 110 -410 213 -668 252 -104 15 -398 17
-471 3z"/>
<path d="M34201 10159 c-300 -25 -537 -111 -756 -275 -343 -258 -525 -621
-525 -1049 0 -367 120 -657 379 -915 275 -274 559 -394 961 -407 430 -14 776
116 1062 399 282 280 411 635 377 1044 -29 361 -182 650 -469 888 -100 83
-150 116 -256 170 -150 75 -348 130 -514 141 -52 3 -108 7 -125 9 -16 2 -77
-1 -134 -5z m377 -419 c283 -78 541 -320 631 -593 108 -325 41 -671 -180 -926
-136 -158 -308 -260 -522 -310 -83 -19 -316 -14 -415 10 -269 65 -520 268
-636 514 -67 141 -88 242 -88 409 1 317 125 556 395 758 66 50 198 113 289
138 150 41 376 41 526 0z"/>
<path d="M22110 10008 c-35 -79 -73 -165 -85 -193 -13 -27 -37 -84 -55 -125
-18 -41 -43 -97 -55 -125 -34 -74 -59 -131 -95 -215 -18 -41 -43 -97 -55 -125
-13 -27 -32 -70 -43 -95 -10 -25 -36 -83 -57 -130 -21 -47 -46 -104 -56 -127
-11 -24 -27 -62 -38 -85 -10 -24 -33 -77 -51 -118 -18 -41 -43 -99 -56 -127
-13 -29 -35 -77 -48 -105 -13 -29 -38 -87 -56 -128 -44 -103 -72 -166 -200
-455 -117 -262 -140 -318 -135 -326 10 -15 418 -12 437 4 9 6 60 116 113 242
53 127 108 256 122 288 l26 57 667 0 666 0 27 -62 c140 -336 219 -515 233
-525 17 -12 406 -19 437 -7 18 7 17 12 -40 139 -41 92 -58 131 -103 235 -18
41 -46 103 -61 138 -16 34 -29 65 -29 67 0 3 -16 39 -35 81 -19 41 -35 77 -35
79 0 3 -11 28 -24 57 -13 29 -56 127 -95 218 -40 91 -78 179 -85 195 -8 17
-30 68 -51 115 -21 47 -46 105 -57 130 -11 25 -26 59 -33 75 -8 17 -46 104
-85 195 -40 91 -88 201 -107 245 -20 44 -45 100 -55 125 -11 25 -31 69 -44 98
-13 29 -24 54 -24 57 0 2 -16 38 -35 79 -19 42 -35 78 -35 81 0 2 -11 28 -24
57 -13 29 -34 77 -46 106 l-22 52 -228 0 -227 0 -63 -142z m333 -448 c24 -58
133 -313 241 -568 108 -254 196 -467 196 -472 0 -6 -17 -10 -37 -10 -285 -3
-946 0 -950 3 -4 4 83 219 147 362 10 22 34 81 55 130 20 50 45 108 55 130 10
22 48 112 85 200 121 287 148 346 156 338 4 -4 28 -55 52 -113z"/>
<path d="M24137 10143 c-4 -3 -7 -590 -7 -1303 0 -1137 2 -1299 15 -1310 24
-20 1177 -8 1313 14 304 50 548 173 754 383 192 194 299 411 345 698 21 134
13 393 -16 519 -61 261 -177 466 -369 648 -174 164 -403 283 -632 327 -30 6
-79 15 -108 21 -58 11 -1284 14 -1295 3z m1303 -407 c282 -72 515 -271 621
-529 54 -130 64 -194 63 -387 -1 -159 -4 -183 -28 -263 -79 -263 -268 -476
-508 -574 -141 -57 -198 -63 -625 -63 l-393 0 0 921 0 920 403 -4 c335 -3 413
-7 467 -21z"/>
<path d="M26730 10142 c0 -5 76 -199 169 -433 93 -233 325 -815 516 -1294 190
-478 351 -875 357 -882 11 -14 424 -18 445 -5 12 8 50 97 307 735 312 774 414
1026 581 1437 96 238 175 437 175 442 0 4 -101 8 -224 8 -204 0 -224 -2 -231
-17 -3 -10 -31 -83 -61 -163 -30 -80 -59 -154 -64 -165 -4 -11 -38 -99 -75
-195 -36 -96 -70 -184 -75 -195 -5 -11 -34 -87 -65 -170 -31 -82 -86 -225
-121 -317 -35 -93 -93 -243 -128 -335 -149 -390 -221 -573 -227 -573 -8 0 -40
81 -179 450 -37 97 -126 333 -194 513 -30 78 -80 210 -111 292 -84 225 -114
304 -140 370 -13 33 -38 98 -55 145 -17 47 -35 94 -40 105 -5 11 -28 72 -53
135 l-44 115 -231 3 c-128 1 -232 -1 -232 -6z"/>
<path d="M29660 8840 l0 -1310 23 -5 c12 -3 108 -4 212 -3 l190 3 3 1313 2
1312 -215 0 -215 0 0 -1310z"/>
<path d="M36190 8841 c0 -1101 2 -1310 14 -1314 20 -8 390 -9 409 -1 16 6 17
41 17 400 l0 394 376 -2 375 -3 68 -110 c37 -60 143 -236 236 -390 92 -154
173 -283 179 -287 5 -4 113 -6 239 -6 174 0 230 3 233 13 3 7 -122 201 -277
431 -154 230 -283 423 -285 428 -2 6 36 30 84 54 162 79 279 195 357 357 76
156 90 228 89 455 0 183 -2 201 -27 283 -43 140 -105 245 -200 339 -102 101
-277 193 -435 229 -161 36 -211 39 -834 39 l-618 0 0 -1309z m1330 895 c192
-54 298 -146 357 -313 27 -77 24 -287 -5 -376 -41 -125 -110 -204 -227 -261
-137 -67 -156 -69 -607 -74 l-408 -4 0 527 0 526 413 -3 c359 -4 420 -7 477
-22z"/>
</g>
</svg>
